# xmcd
#
# Track frame offsets: 
#        150
#        16813
#        35173
#        51836
#
# Disc length: 933 seconds
#
# Revision: 3
# Processed by: cddbd v1.5.2PL0 Copyright (c) Steve Scherf et al.
# Submitted via: ExactAudioCopy v1.3
#
DISCID=2c03a304
DTITLE=Various Artist - もうひとつのバースディ
DYEAR=2005
DGENRE=Anime
TTITLE0=Fm.θ - もうひとつのバースディ
TTITLE1=果林(矢作紗友里) and 杏樹(猪口有佳) - スキだからGA・BU・RI
TTITLE2=太田雅友 - もうひとつのバースディ オリジナルカラオケ
TTITLE3=太田雅友 - スキだからGA・BU・RI オリジナルカラオケ
EXTD=YEAR: 2005
EXTT0=
EXTT1=
EXTT2=
EXTT3=
PLAYORDER=
